# xmcd CD database file
#
# Track frame offsets:
#	150
#	2550
#	18275
#	48990
#	72080
#	95341
#	97891
#	114102
#	128085
#	149341
#	171939
#	226036
#
# Disc length: 3061 seconds
#
# Revision: 0
# Processed by: cddbd v1.5.1PL0 Copyright (c) Steve Scherf et al.
# Submitted via: CDex 1.51
#
DISCID=860bf30c
DTITLE=Le Freylekh Trio - Yiddish et Yallah !
DYEAR=2004
DGENRE=Jazz
TTITLE0=Shalom Alekoum
TTITLE1=Yallah
TTITLE2=Tout l'monde danse
TTITLE3=Echo Echo
TTITLE4=Danse du Boîteux
TTITLE5=Yiddish et Yallah
TTITLE6=Petit Dromadaire 1
TTITLE7=Petit Dromadaire 2
TTITLE8=Nigun Shell Yossi
TTITLE9=Ruisseau
TTITLE10=Hava Nagila
TTITLE11=Alekoum Shalom
EXTD=YEAR: 2004
EXTT0=
EXTT1=
EXTT2=
EXTT3=
EXTT4=
EXTT5=
EXTT6=
EXTT7=
EXTT8=
EXTT9=
EXTT10=
EXTT11=
PLAYORDER=
